<svg width="88" height="88" viewBox="0 0 88 88" fill="none" xmlns="http://www.w3.org/2000/svg">
<circle cx="44" cy="44" r="44" fill="#2C2C2C"/>
<circle cx="44.0001" cy="44" r="32.2667" fill="#D1A066"/>
<g clip-path="url(#clip0_2_33)">
<path d="M43.9999 26.4C39.2186 26.4 38.6216 26.422 36.7443 26.5056C34.8699 26.5936 33.5939 26.8884 32.4719 27.324C31.3147 27.7728 30.332 28.3756 29.3538 29.3539C28.3755 30.3321 27.7712 31.3133 27.3239 32.472C26.8883 33.594 26.592 34.87 26.5055 36.7444C26.4175 38.6217 26.3999 39.2187 26.3999 44C26.3999 48.7813 26.4219 49.3783 26.5055 51.2556C26.5935 53.1285 26.8883 54.406 27.3239 55.528C27.7727 56.6837 28.3755 57.6679 29.3538 58.6461C30.332 59.6229 31.3132 60.2287 32.4719 60.676C33.5954 61.1101 34.8714 61.4079 36.7443 61.4944C38.6216 61.5824 39.2186 61.6 43.9999 61.6C48.7812 61.6 49.3782 61.578 51.2555 61.4944C53.1284 61.4064 54.4059 61.1101 55.5279 60.676C56.6836 60.2272 57.6678 59.6229 58.646 58.6461C59.6228 57.6679 60.2286 56.6881 60.6759 55.528C61.11 54.406 61.4078 53.1285 61.4943 51.2556C61.5823 49.3783 61.5999 48.7813 61.5999 44C61.5999 39.2187 61.5779 38.6217 61.4943 36.7444C61.4063 34.8715 61.11 33.5925 60.6759 32.472C60.2271 31.3148 59.6228 30.3321 58.646 29.3539C57.6678 28.3756 56.688 27.7713 55.5279 27.324C54.4059 26.8884 53.1284 26.5921 51.2555 26.5056C49.3782 26.4176 48.7812 26.4 43.9999 26.4ZM43.9999 29.568C48.6976 29.568 49.2579 29.5915 51.1132 29.6721C52.8292 29.7528 53.7606 30.0373 54.3795 30.2808C55.2038 30.5991 55.7875 30.9804 56.4064 31.5949C57.021 32.2109 57.4023 32.7961 57.7206 33.6204C57.9611 34.2393 58.2486 35.1707 58.3263 36.8867C58.4099 38.7435 58.429 39.3008 58.429 44C58.429 48.6992 58.407 49.258 58.3204 51.1133C58.231 52.8293 57.945 53.7607 57.703 54.3796C57.3744 55.2039 57.0004 55.7876 56.3844 56.4065C55.7699 57.0211 55.1759 57.4024 54.3604 57.7207C53.7444 57.9612 52.7984 58.2487 51.0824 58.3264C49.2139 58.41 48.6639 58.4291 43.9559 58.4291C39.2464 58.4291 38.6964 58.4071 36.8294 58.3205C35.1119 58.2311 34.1659 57.9451 33.5499 57.7031C32.7154 57.3745 32.1419 57.0005 31.5274 56.3845C30.9099 55.77 30.5154 55.176 30.2074 54.3605C29.9654 53.7445 29.6808 52.7985 29.5914 51.0825C29.5254 49.2345 29.5019 48.664 29.5019 43.978C29.5019 39.2905 29.5254 38.7185 29.5914 36.8485C29.6808 35.1325 29.9654 34.188 30.2074 33.572C30.5154 32.736 30.9099 32.164 31.5274 31.5465C32.1419 30.932 32.7154 30.536 33.5499 30.2295C34.1659 29.986 35.0914 29.7 36.8074 29.612C38.6774 29.546 39.2274 29.524 43.9339 29.524L43.9999 29.568ZM43.9999 34.9624C39.0059 34.9624 34.9623 39.0104 34.9623 44C34.9623 48.994 39.0103 53.0376 43.9999 53.0376C48.9939 53.0376 53.0375 48.9896 53.0375 44C53.0375 39.006 48.9895 34.9624 43.9999 34.9624ZM43.9999 49.8667C40.7586 49.8667 38.1332 47.2413 38.1332 44C38.1332 40.7587 40.7586 38.1333 43.9999 38.1333C47.2412 38.1333 49.8666 40.7587 49.8666 44C49.8666 47.2413 47.2412 49.8667 43.9999 49.8667ZM55.5074 34.606C55.5074 35.772 54.5599 36.718 53.3954 36.718C52.2294 36.718 51.2834 35.7705 51.2834 34.606C51.2834 33.4415 52.2308 32.4955 53.3954 32.4955C54.5584 32.494 55.5074 33.4415 55.5074 34.606Z" fill="white"/>
</g>
<defs>
<clipPath id="clip0_2_33">
<rect width="35.2" height="35.2" fill="white" transform="translate(26.3999 26.4)"/>
</clipPath>
</defs>
</svg>
